<?xml version="1.0" encoding="UTF-8"?>
<svg width="37px" height="54px" viewBox="0 0 37 54" version="1.1" xmlns="http://www.w3.org/2000/svg" xmlns:xlink="http://www.w3.org/1999/xlink">
    <!-- Generator: Sketch 50.2 (55047) - http://www.bohemiancoding.com/sketch -->
    <title>C</title>
    <desc>Created with Sketch.</desc>
    <defs>
        <circle id="path-1" cx="15" cy="15" r="15"></circle>
        <filter x="-15.0%" y="-15.0%" width="130.0%" height="130.0%" filterUnits="objectBoundingBox" id="filter-2">
            <feOffset dx="0" dy="0" in="SourceAlpha" result="shadowOffsetOuter1"></feOffset>
            <feGaussianBlur stdDeviation="1.5" in="shadowOffsetOuter1" result="shadowBlurOuter1"></feGaussianBlur>
            <feColorMatrix values="0 0 0 0 0   0 0 0 0 0   0 0 0 0 0  0 0 0 0.15 0" type="matrix" in="shadowBlurOuter1"></feColorMatrix>
        </filter>
    </defs>
    <g id="Symbols" stroke="none" stroke-width="1" fill="none" fill-rule="evenodd">
        <g id="Card/Job/Home" transform="translate(-18.000000, -408.000000)">
            <g id="C" transform="translate(22.000000, 429.000000)">
                <g id="Group">
                    <g id="Oval">
                        <use fill="black" fill-opacity="1" filter="url(#filter-2)" xlink:href="#path-1"></use>
                        <use fill="#FFFFFF" fill-rule="evenodd" xlink:href="#path-1"></use>
                    </g>
                    <g id="Icon/CAN" transform="translate(3.636364, 3.636364)">
                        <g id="CanYa_Circle_Icon_CIrcle-Icon" transform="translate(-7.187500, -23.862500)">
                            <circle id="Oval" fill="#FFFFFF" fill-rule="nonzero" cx="18.6580446" cy="35.3330446" r="10.2626724"></circle>
                            <path d="M0.2575,0.0575 L0.0575,0.1575 C0.2075,0.3075 0.4075,0.4075 0.5575,0.5575 L0.2575,0.0575 Z" id="Shape" fill="#FFFFFF" fill-rule="nonzero"></path>
                            <path d="M2.01875,7.96375 L1.86875,8.06375 C2.01875,8.16375 2.16875,8.26375 2.31875,8.41375 L2.01875,7.96375 Z" id="Shape" fill="#FFFFFF" fill-rule="nonzero"></path>
                            <path d="M18.6825894,23.8625 C12.3356419,23.8625 7.1875,29.0106419 7.1875,35.3575894 C7.1875,41.7045369 12.3356419,46.8526787 18.6825894,46.8526787 C25.0295369,46.8526787 30.1776787,41.7045369 30.1776787,35.3575894 C30.1776787,29.0106419 25.0295369,23.8625 18.6825894,23.8625 Z M13.2543527,41.4188402 C12.5709215,40.6625843 12.0499452,39.771883 11.685822,38.7467361 C11.3216988,37.7215892 11.1424382,36.6180158 11.1424382,35.4360159 C11.1424382,34.2204046 11.3216988,33.0944236 11.685822,32.058073 C11.9995282,31.1617697 12.4308741,30.3663006 12.9798598,29.6660636 C12.9798598,29.6660636 12.9798598,29.6660636 12.9798598,29.6660636 C13.0022674,29.6380542 13.024675,29.6100447 13.0470826,29.5820352 C13.1143053,29.4980068 13.1815281,29.4195802 13.2487508,29.3411537 C13.3327793,29.2459215 13.4224096,29.1506893 13.5120399,29.055457 C13.5176418,29.0498551 13.5232437,29.0442533 13.5288456,29.0386514 C13.6016702,28.9658267 13.6800968,28.8930021 13.7529214,28.8201774 C13.775329,28.7977699 13.7977366,28.7809642 13.8201442,28.7585566 C13.8761631,28.7081395 13.9321821,28.6577225 13.988201,28.6129073 C14.0162105,28.5904997 14.0386181,28.5680921 14.0666276,28.5456846 C14.1226465,28.5008694 14.1786655,28.4560542 14.2346844,28.4112391 C14.2626939,28.3888315 14.2907034,28.3720258 14.3187129,28.3496182 C14.3411204,28.3328125 14.363528,28.3160068 14.3859356,28.2992012 C14.3859356,28.2992012 14.3859356,28.2992012 14.3915375,28.2992012 C14.8060778,27.9966988 15.2598313,27.7390116 15.7584,27.5205377 C16.7499355,27.0835899 17.8703145,26.859514 19.1139353,26.859514 C20.0102386,26.859514 20.8561248,26.9883576 21.6515939,27.2460448 C22.4470631,27.503732 23.1585038,27.879059 23.791518,28.3720258 C24.1052241,28.6185092 24.3853189,28.8874002 24.6430061,29.1899025 C24.9062952,29.4980068 25.1415748,29.8341205 25.3488449,30.2038456 C25.7577833,30.932092 26.0154705,31.7667744 26.1219065,32.7078928 L24.217262,32.7078928 C23.416191,32.7078928 22.6823427,32.2765469 22.2622005,31.5931157 C22.2622005,31.5875138 22.2565986,31.5875138 22.2565986,31.5819119 C22.0437266,31.2401962 21.7804375,30.9432958 21.4611295,30.6856086 C21.1418215,30.4279214 20.7833001,30.2262532 20.3799637,30.0806039 C20.0102386,29.9461584 19.6293097,29.8789357 19.2315751,29.8677319 C19.1923619,29.8677319 19.1587505,29.8677319 19.1195372,29.8677319 C18.3128643,29.8677319 17.6350349,30.0245849 17.0748454,30.3326892 C16.5146559,30.6407934 16.0609023,31.0609356 15.7079829,31.5819119 C15.6687696,31.6435327 15.6295564,31.7051536 15.5903431,31.7667744 C15.5623336,31.8115896 15.539926,31.8508028 15.5175185,31.895618 C15.5063147,31.9124237 15.4951109,31.9292294 15.489509,31.9460351 C15.4558976,32.002054 15.4278881,32.058073 15.3998787,32.1196938 C15.3998787,32.1252957 15.3942768,32.1252957 15.3942768,32.1308976 C15.3606654,32.1925185 15.3326559,32.2541393 15.3046464,32.3213621 C15.1589972,32.646272 15.0357555,32.9991914 14.9461251,33.3689165 C14.7892721,34.0355421 14.7052436,34.7245752 14.7052436,35.4360159 C14.7052436,36.1194471 14.7836702,36.7804708 14.9461251,37.4246888 C15.1029782,38.0689067 15.3606654,38.6515039 15.7079829,39.1668782 C16.0553004,39.6822526 16.509054,40.0967929 17.0748454,40.4048971 C17.6350349,40.7186033 18.3184662,40.8698545 19.1195372,40.8698545 C19.1643524,40.8698545 19.2147694,40.8698545 19.2595846,40.8698545 C17.8927221,41.8501861 16.2233573,42.4327833 14.419547,42.4551909 C13.9938029,42.1526885 13.6016702,41.805371 13.2543527,41.4188402 Z M25.556115,39.984755 C25.1751861,40.8026317 24.6766175,41.5028686 24.0548071,42.0798639 C23.4329967,42.6568591 22.7047503,43.0938069 21.8700679,43.3963093 C21.1082101,43.6708022 20.2791296,43.8220533 19.3772244,43.8444609 C19.293196,43.8444609 19.2035656,43.8500628 19.1139353,43.8500628 C19.0971296,43.8500628 19.0803239,43.8500628 19.0635183,43.8500628 C18.2176321,43.8444609 17.4333667,43.7436268 16.7051203,43.5363567 C18.3072624,43.0657975 19.7133381,42.1414847 20.7720964,40.9090677 C20.9065418,40.7522146 21.0409873,40.5841578 21.164229,40.4161009 C21.2762669,40.2872573 21.3939067,40.1584137 21.5115466,40.035172 C21.5675655,39.984755 21.6235845,39.928736 21.6740015,39.8727171 C21.6740015,39.8671152 21.6796034,39.8671152 21.6796034,39.8615133 C21.9316887,39.6206318 22.1949778,39.3909541 22.4694707,39.178082 C23.5450346,38.3602053 24.8222667,37.788812 26.2171387,37.5591343 C26.1163046,38.4498356 25.8978307,39.2565086 25.556115,39.984755 Z" id="Shape" fill="#33CCFF" fill-rule="nonzero"></path>
                        </g>
                    </g>
                </g>
            </g>
        </g>
    </g>
</svg>