<?xml version="1.0" encoding="utf-8"?>
<!-- Generator: Adobe Illustrator 22.0.1, SVG Export Plug-In . SVG Version: 6.00 Build 0)  -->
<svg version="1.1" id="_ÎÓÈ_1" xmlns="http://www.w3.org/2000/svg" xmlns:xlink="http://www.w3.org/1999/xlink" x="0px" y="0px"
	 viewBox="0 0 485 485" style="enable-background:new 0 0 485 485;" xml:space="preserve">
<style type="text/css">
	.st0{fill:none;}
	.st1{fill:#33CCFF;}
	.st2{fill:url(#SVGID_1_);}
	.st3{fill:#CCCCCC;}
	.st4{fill:#F8F9FA;}
	.st5{fill:#F16667;}
	.st6{fill:#FFFFFF;}
	.st7{fill:#73C9B9;}
	.st8{fill:#DAE6EA;}
	.st9{fill:#FFC70A;}
	.st10{fill:none;stroke:#FFFFFF;stroke-width:2;stroke-miterlimit:10;}
	.st11{fill:none;stroke:#FFFFFF;stroke-width:2;stroke-miterlimit:10;stroke-dasharray:4.81,4.81;}
	.st12{fill:#00ACA0;}
	.st13{fill:#485F63;}
	.st14{fill:#B7BBBD;}
	.st15{fill:#9B9A9A;}
	.st16{fill:#FAB08A;}
	.st17{fill:#46C8F5;}
	.st18{fill:url(#SVGID_2_);}
	.st19{fill:#F79C82;}
	.st20{fill:url(#SVGID_3_);}
	.st21{fill:#DCE0EC;}
	.st22{fill:#1C2C57;}
	.st23{fill:#FAA525;}
	.st24{fill:url(#SVGID_4_);}
	.st25{fill:url(#SVGID_5_);}
	.st26{fill:#FFD874;}
	.st27{fill:#F1B71C;}
	.st28{fill:url(#SVGID_6_);}
	.st29{fill:#4EDCCA;}
	.st30{fill:#85E5FF;}
	.st31{fill:#E6FAFF;}
	.st32{fill:#0678BE;}
	.st33{fill:#118C8C;}
	.st34{fill:#004060;}
	.st35{fill:#F68B27;}
	.st36{fill:url(#SVGID_7_);}
</style>
<pattern  y="485" width="30" height="30" patternUnits="userSpaceOnUse" id="SVGID_1_2" viewBox="1.5 -31.5 30 30" style="overflow:visible;">
	<g>
		<rect x="1.5" y="-31.5" class="st0" width="30" height="30"/>
		<g>
			<rect x="1.5" y="-31.5" class="st0" width="30" height="30"/>
			<rect x="1.5" y="-31.5" class="st0" width="30" height="30"/>
			<circle class="st1" cx="24" cy="-1.5" r="1.5"/>
			<circle class="st1" cx="9" cy="-1.5" r="1.5"/>
			<circle class="st1" cx="31.5" cy="-16.5" r="1.5"/>
			<circle class="st1" cx="16.5" cy="-16.5" r="1.5"/>
			<circle class="st1" cx="1.5" cy="-16.5" r="1.5"/>
			<circle class="st1" cx="24" cy="-31.5" r="1.5"/>
			<circle class="st1" cx="9" cy="-31.5" r="1.5"/>
		</g>
	</g>
</pattern>
<title>CanHire</title>
<pattern  id="SVGID_1_" xlink:href="#SVGID_1_2" patternTransform="matrix(1 0 0 1 51.5 16163.1074)">
</pattern>
<path class="st2" d="M58.8,137.7C20.2,74.3,48.3-3.8,116.5,14.7s138.1,35.7,151.7,34.1c64.7-7.3,155.4-39.5,171.4,0.7
	s66.4,71.3-15.7,164.2c-51.8,58.6,36.8,44.2,33.1,137S364.8,469,324.9,469s-72.7-21.8-120.2-29.7c-58.8-9.8-105.2,44-133.1,31.9
	s-70-117.9-51.7-201.4C36.2,195.7,101.8,208.2,58.8,137.7z"/>
<path class="st3" d="M80.7,68.5l-0.6,356.9c0,8.9,7.5,16.2,16.8,16.2h284.6c9.2,0,16.7-7.2,16.8-16l2.4-357.5
	c0.1-9-7.5-16.3-16.8-16.3L97.5,52.5C88.2,52.4,80.7,59.6,80.7,68.5z"/>
<polygon class="st4" points="92.9,67.3 92.3,426.7 386.2,426.7 388.6,66.7 "/>
<rect x="201.6" y="259.1" class="st5" width="153.3" height="5.2"/>
<polygon class="st6" points="92.9,67.3 92.9,96.9 388.5,96.9 388.6,66.7 "/>
<rect x="201.6" y="206.5" class="st7" width="153.3" height="10.4"/>
<rect x="201.6" y="226.8" class="st7" width="153.3" height="5.2"/>
<rect x="201.6" y="244.5" class="st5" width="153.3" height="5.2"/>
<rect x="201.6" y="274.7" class="st8" width="153.3" height="10.4"/>
<rect x="201.6" y="300.9" class="st8" width="153.3" height="5.2"/>
<rect x="201.6" y="324.2" class="st9" width="153.3" height="10.4"/>
<rect x="201.6" y="395.6" class="st9" width="153.3" height="18.5"/>
<rect x="201.6" y="363.7" class="st8" width="153.3" height="6.9"/>
<rect x="121.6" y="345.3" class="st7" width="68.9" height="68.9"/>
<polyline class="st10" points="180.2,401.4 180.2,403.9 177.8,403.9 "/>
<line class="st11" x1="172.9" y1="403.9" x2="136.8" y2="403.9"/>
<polyline class="st10" points="134.4,403.9 131.9,403.9 131.9,401.4 "/>
<line class="st11" x1="131.9" y1="396.6" x2="131.9" y2="360.5"/>
<polyline class="st10" points="131.9,358.1 131.9,355.6 134.4,355.6 "/>
<line class="st11" x1="139.2" y1="355.6" x2="175.3" y2="355.6"/>
<polyline class="st10" points="177.8,355.6 180.2,355.6 180.2,358.1 "/>
<line class="st11" x1="180.2" y1="362.9" x2="180.2" y2="399"/>
<rect x="121.6" y="195.5" class="st12" width="68.9" height="68.9"/>
<polyline class="st10" points="180.2,251.6 180.2,254.1 177.8,254.1 "/>
<line class="st11" x1="172.9" y1="254.1" x2="136.8" y2="254.1"/>
<polyline class="st10" points="134.4,254.1 131.9,254.1 131.9,251.6 "/>
<line class="st11" x1="131.9" y1="246.8" x2="131.9" y2="210.7"/>
<polyline class="st10" points="131.9,208.3 131.9,205.8 134.4,205.8 "/>
<line class="st11" x1="139.2" y1="205.8" x2="175.3" y2="205.8"/>
<polyline class="st10" points="177.8,205.8 180.2,205.8 180.2,208.3 "/>
<line class="st11" x1="180.2" y1="213.1" x2="180.2" y2="249.2"/>
<path class="st6" d="M180,341.7c-2.2-2-4.4-3.9-6.8-5.6c-3.4,19-14.8,46.7-19.1,45.6c-3.8-0.9-9.1-11.6-14.4-22.9
	c-2.5,2-4.9,4.1-7.1,6.1c-0.7,15.5,16.7,30,22.2,31.2C160.5,397.6,184.5,362,180,341.7z"/>
<rect x="121.6" y="270.4" class="st12" width="68.9" height="68.9"/>
<polyline class="st10" points="180.2,326.5 180.2,329 177.8,329 "/>
<line class="st11" x1="172.9" y1="329" x2="136.8" y2="329"/>
<polyline class="st10" points="134.4,329 131.9,329 131.9,326.5 "/>
<line class="st11" x1="131.9" y1="321.7" x2="131.9" y2="285.6"/>
<polyline class="st10" points="131.9,283.2 131.9,280.7 134.4,280.7 "/>
<line class="st11" x1="139.2" y1="280.7" x2="175.3" y2="280.7"/>
<polyline class="st10" points="177.8,280.7 180.2,280.7 180.2,283.2 "/>
<line class="st11" x1="180.2" y1="288" x2="180.2" y2="324.1"/>
<path class="st6" d="M179.6,191.6c-2.2-2-4.4-3.9-6.8-5.6c-3.4,19-14.8,46.6-19.1,45.6c-3.8-0.9-9.1-11.6-14.4-22.9
	c-2.5,2-4.9,4.1-7.1,6.1c-0.7,15.6,16.6,30,22.2,31.3C160,247.4,184,211.9,179.6,191.6z"/>
<path class="st13" d="M292.5,17h-37.9V5.8c0-3.2-2.6-5.8-5.8-5.8l0,0h-30c-3.1,0-5.6,2.4-5.8,5.4L212.3,17h-34.1l-4.1,50.4h118.5
	L292.5,17z M223.8,14c0.2-3.1,2.7-5.4,5.8-5.4h7.6c3.2,0,5.8,2.6,5.8,5.8c0,0.9-0.2,1.8-0.7,2.7h-17.9C224,16.1,223.7,15,223.8,14z"
	/>
<polygon class="st14" points="125.4,344.9 84.8,480.9 89.5,480.9 130.1,344.9 "/>
<polygon class="st14" points="167.9,344.9 127.3,480.9 132,480.9 172.6,344.9 "/>
<polygon class="st14" points="125.6,344.9 125.6,348.6 169.6,348.6 170.3,344.9 "/>
<polygon class="st14" points="118.1,371.6 118.1,375.7 162.1,375.6 162.9,371.5 "/>
<polygon class="st14" points="110.3,399.7 108.5,403.8 152.6,403.7 153.3,399.6 "/>
<polygon class="st14" points="102,427.8 100.2,431.9 144.3,431.8 145,427.7 "/>
<polygon class="st14" points="94.3,455.2 92.5,459.3 136.6,459.3 137.3,455.2 "/>
<polygon class="st15" points="314.8,344.9 355.4,480.9 360.1,480.9 319.5,344.9 "/>
<polygon class="st15" points="272.3,344.9 312.9,480.9 317.5,480.9 277,344.9 "/>
<polygon class="st15" points="274.5,344.9 275.2,348.6 319.3,348.6 319.3,344.9 "/>
<polygon class="st15" points="326.8,371.6 326.8,375.7 282.7,375.6 282,371.5 "/>
<polygon class="st15" points="334.6,399.7 336.4,403.8 292.3,403.7 291.6,399.6 "/>
<polygon class="st15" points="342.9,427.8 344.6,431.9 300.6,431.8 299.8,427.7 "/>
<polygon class="st15" points="350.6,455.2 352.4,459.3 308.3,459.3 307.6,455.2 "/>
<rect x="117.3" y="341.9" class="st15" width="215" height="6.8"/>
<path class="st16" d="M331,113.8c-1-0.4-2.2-0.1-2.8,0.9l5.3,2.7l0.2-0.1c1.1-0.5,2.3-0.9,3.5-1.3C336.7,115.5,332,114.1,331,113.8z
	"/>
<path class="st16" d="M87.4,270c-0.8,1.7-0.9,3.6-0.3,5.4l1,7l1.2,0.8l4.5,1.9c-0.3-0.9-0.3-1.9,0-2.8l2-7.2c0,0,3.1-12.2-5.2-11.7
	l0,0l-2.9,0.3L87.4,270z"/>
<path class="st17" d="M66.8,294.2c0,0,5.8,22.1,10.7,22.5s10.1-35,10.1-35l6.7,0.8c0,0,2.6,51-12.5,51.9S64.7,324,64.7,324
	L66.8,294.2z"/>
<linearGradient id="SVGID_2_" gradientUnits="userSpaceOnUse" x1="28.5437" y1="129.5115" x2="67.247" y2="196.5473" gradientTransform="matrix(1 0 0 -1 0 485.276)">
	<stop  offset="0" style="stop-color:#33CCFF"/>
	<stop  offset="1" style="stop-color:#0078BF"/>
</linearGradient>
<path class="st18" d="M66.2,354.7H26.7v-59.9C38,277.6,52,282.3,52,282.3s12.8,0.2,14.8,12C66.8,302.7,66.2,354.7,66.2,354.7z"/>
<path class="st19" d="M47.4,274.3l-0.6,8.5l0.3,0.3c2.8,2.7,7.1,2.7,10,0.1l0,0l0.1-6.4L47.4,274.3z"/>
<path class="st16" d="M44.3,256.6l0.7,14c1.2,0.1,2.1,1.1,2,2.3c0,0.2,0,0.3-0.1,0.5c0.1,0.3,0.2,0.7,0.2,1c2.4,1.7,6,7.2,11.7,6.1
	c8.9-1.7,4.3-22,4.3-22L44.3,256.6z"/>
<path class="st13" d="M39.9,267.1c-0.4-1.5-1.2-2.8-2.2-3.9c-5-4.3-0.5-7.5,1.1-8.5c1.8-1.1,1.4-4.3,3.7-6.1
	c3.5-2.7,6.8,0.1,9.1-0.3s3.6-3.4,6.8-1.8s2.9,4.1,3.9,5.2s3-1.9,6.1,1.5c4.8,5.2-4.6,7.4-4.6,7.4c-3.9,1.3-8.2,1.1-12-0.5
	c-0.9-0.4-2-0.1-2.7,0.6c-1.6,2.2-1.7,13.9-1.7,13.9l-2.3-1.9C45.1,272.7,40.2,271.9,39.9,267.1z"/>
<path class="st16" d="M45.2,268.3c0.5,1.1,1.7,1.6,2.8,1.2c1.1-0.5,1.6-1.7,1.2-2.8c-0.5-1.1-1.7-1.6-2.8-1.2
	C45.3,265.9,44.7,267.2,45.2,268.3L45.2,268.3z"/>
<path class="st13" d="M57.2,467.7c0,0,2.2,3.1,12.7,5.8c2.3,0.6,4.8,1,4.8,4.8H48.1c0,0-1.6-9.4,1.7-10.5L57.2,467.7L57.2,467.7z"/>
<path class="st16" d="M57.8,461l-0.5,6.7l0,0c-2.1,1.5-4.8,1.5-7,0.2l-0.4-0.2V461H57.8z"/>
<path class="st13" d="M27.8,467.7c0,0,2.2,3.1,12.7,5.8c2.3,0.6,4.8,1,4.8,4.8H18.7c0,0-1.6-9.4,1.7-10.5L27.8,467.7L27.8,467.7z"/>
<path class="st16" d="M28.4,461l-0.5,6.7l0,0c-2.1,1.5-4.8,1.5-7,0.2l-0.4-0.2V461H28.4z"/>
<path class="st17" d="M26.8,294.8c0,0-11.8,27.3,3.2,41.2s35.6,11.6,35.6,11.6v-7.9c0,0-18.5-1.6-24.4-13.9s2.4-23.1,2.4-23.1"/>
<path class="st16" d="M64.4,346.5l9.4,0.2c3.8-0.2,6.4-5.9,7-10.2c0.1-0.5-0.3-0.9-0.7-1c-0.1,0-0.3,0-0.4,0
	c-3.2,1.1-11.4,4-13.6,5.4L64.4,346.5z"/>
<path class="st13" d="M66.2,354.7C78,388,59.6,461.5,59.6,461.5H49.1c0,0,4.9-104.3-8.7-106.8H66.2z"/>
<path class="st16" d="M89.2,271.1c0,0-2.2-0.7-2.5-4.6s-2.2-2.7-2.2-2.7s1,15.7,3.5,16.2S89.2,271.1,89.2,271.1z"/>
<path class="st13" d="M54.6,354.7c3.2,40.7-22.8,106.8-22.8,106.8H19.3c0,0,8.5-42.2,8.6-81.9c0.1-8.3-0.3-16.6-1.2-24.9H54.6z"/>
<polygon class="st19" points="431.4,278.2 432.2,288.3 442,288.7 438.1,273.1 "/>
<path class="st16" d="M403.6,286.7c-0.2-0.5-0.9-2-3.6-4.2c-2.5-1.9-8.8-4.4-6-6.3c3.4,0.3,7.4,0.2,7.4,0.2c2,0.4,4.4,2.9,5.6,4.8
	l3,6.1c0,0-1.4,3-1.4,3.2l-1.4-0.3C406.2,288.9,405,287.7,403.6,286.7z"/>
<path class="st16" d="M403.5,285c0-0.2,0-0.3-0.1-0.5c0.4,0.1,0.9,0.2,1.3,0.2c1.4,0.9,2.8,1.7,4.2,2.5c-0.6,0.7-1.4,1.8-1.5,1.9
	l-10.3-3.6c0,0-0.1-1.4,2.2-1.4C400.8,284.1,402.2,284.4,403.5,285z"/>
<path class="st13" d="M425,476.9c0,0-3.5,3.3-11.5,5.3c-1.8,0.5-3.7-0.1-3.7,2.8h9.7l8.1-1.4v1.4h4.4c0,0,1.2-7.2-1.3-8.1L425,476.9
	L425,476.9z"/>
<path class="st16" d="M425.5,471.8l-0.5,5.1l0,0c1.6,1.1,3.7,1.2,5.4,0.2l0.3-0.2l0.9-5.1H425.5z"/>
<path class="st16" d="M374.3,306.4c-0.5,0-2.2-0.4-4.9-2.6c-2.4-2-6.2-7.6-7.5-4.5c1,3.2,1.8,7.2,1.8,7.2c0.8,1.9,3.8,3.6,5.9,4.4
	l6.6,1.5c0,0,2.6-2,2.8-2.1l-0.6-1.3C377,308.4,375.6,307.5,374.3,306.4z"/>
<path class="st16" d="M372.6,306.6c-0.2,0-0.3,0-0.5,0c0.2,0.4,0.3,0.8,0.5,1.2c1.1,1.2,2.2,2.4,3.4,3.5c0.6-0.8,1.4-1.8,1.5-1.9
	l-5.9-9.2c0,0-1.4,0.2-0.8,2.4C371.1,304.2,371.7,305.5,372.6,306.6z"/>
<path class="st13" d="M459.4,469.7c0,0-3.5,3.3-11.6,5.3c-1.8,0.5-3.7-0.1-3.7,2.8h9.7l8.1-1.4v1.4h4.4c0,0,1.2-7.2-1.3-8.1
	L459.4,469.7z"/>
<path class="st16" d="M459.9,464.6l-0.5,5.1l0,0c1.6,1.1,3.7,1.2,5.4,0.2l0.3-0.2l0.9-5.1H459.9z"/>
<path class="st13" d="M455.4,353.1c0,0-2.9,15.2-0.3,46.5c0.5,5.5,1.7,11,3.7,16.2c6.9,17.6,7.8,50.2,7.8,50.2h-7.9L431,386.6
	L455.4,353.1z"/>
<linearGradient id="SVGID_3_" gradientUnits="userSpaceOnUse" x1="374.81" y1="167.3321" x2="455.6243" y2="167.3321" gradientTransform="matrix(1 0 0 -1 0 485.276)">
	<stop  offset="0" style="stop-color:#33CCFF"/>
	<stop  offset="1" style="stop-color:#4EDCCA"/>
</linearGradient>
<path class="st20" d="M436.8,283c-3.5,3.1-6.7,6.6-9.3,10.4l-18.6-8.8l-5.5,8.2l15.8,14.7l0.5,1l-1.3,2.5c-2.2,4.1-6.9,6.1-11.4,4.8
	l-29.1-8.2l-3,6.1c0,0,26.9,20.7,43.7,19.1c0.8,11.9,1.1,20.3,1.1,20.3h35.8C455.4,353.2,459.4,278.3,436.8,283z"/>
<path class="st13" d="M419.7,353.1l5.2,120h7c0,0,7.9-28,7.3-50.1c-0.2-7,1-13.9,3.6-20.4c6.4-15.9,10.7-32.5,12.6-49.6h-35.7V353.1
	z"/>
<polygon class="st21" points="358.1,294.9 383.5,313.9 412.4,291.3 388.8,273.8 "/>
<path class="st16" d="M370,310.9l5.5,1.2c0.5-1.3,1.2-2.5,2-3.7c-1.1-0.6-2.2-1.3-3.1-2.1c-0.5,0-2.2-0.4-4.9-2.6c0.5,2,0.7,4,0.6,6
	C370,310.2,370,310.6,370,310.9z"/>
<path class="st16" d="M377,309l-5.5-8.6c0,0-1.4,0.2-0.8,2.4c0.4,1.4,1,2.7,1.9,3.8c-0.2,0-0.3,0-0.5,0c0.2,0.4,0.3,0.8,0.5,1.2
	c1.1,1.1,2.2,2.3,3.2,3.4C376.1,310.5,376.5,309.8,377,309z"/>
<path class="st16" d="M401.9,281.7h-0.2c0.9,0.8,1.7,1.8,2.1,2.9c0.6,0.5,1.2,1,1.8,1.6c0.1-0.6,0.2-1.1,0.3-1.6
	C404.5,283.8,403.1,282.9,401.9,281.7z"/>
<path class="st16" d="M402.9,282.6c-1.1-0.4-2.2-0.6-3.3-0.6c-2.3,0-2.2,1.4-2.2,1.4l8.3,2.9c0.1-0.6,0.2-1.1,0.3-1.7
	C404.8,284,403.8,283.3,402.9,282.6z"/>
<polygon class="st6" points="431.4,288.3 431.4,283.4 439.7,279.9 442.7,283.7 "/>
<path class="st16" d="M426.9,282.9c-1.2,0.2-2.4,0-3.4-0.5c-4.7-5.9-2-23.5-2-23.5l14.7,1l1.7,11.4c0.5,3-0.6,6.1-2.8,8.3l0,0
	C432.8,281.4,429.9,282.6,426.9,282.9z"/>
<path class="st13" d="M429.5,260.9c0,0-1.2,1.4-6.3,1.1s-4.4-4.9-4.4-4.9s2.2,0,8.7-1.7c4.4-1.1,5.5-2.1,8.5-0.9
	c4.1,1.7,3.9,8.8,3.9,8.8l-0.5,15.1l-0.8,1.1c0,0-1.1-9.8-1.5-12.8c-1-1.3-1.9-1.2-2.6-0.8c-0.7,0.5-1.1,1.3-1,2.2l1.7,15.5
	c0,0-9.4,5.3-12,4.8s-2.1-12.1-2.1-12.1c1.7-0.9,3.8-0.6,5.3,0.7c2.5,2.2,4.9-0.6,4.9-0.6L429.5,260.9z"/>
<path class="st16" d="M435.8,265.3c-1.3,0.2-2.2,1.3-2.1,2.6c-0.1,1.4,0.8,2.5,1.9,2.5c1.3-0.2,2.2-1.3,2.1-2.6
	c0.2-1.2-0.6-2.3-1.8-2.5C435.9,265.3,435.9,265.3,435.8,265.3z"/>
<polygon class="st9" points="170.6,230.9 169.5,233.4 174.1,234 174.9,231.8 "/>
<path class="st5" d="M169.7,232.9c0,0-8.5,0.6-12.5,6.2c-1.6,2.3-2,6.1-2.4,8.6c-0.2,1.9-1.3,3.5-2.8,4.6c-4.2,3-11.8,9.8-4.4,16.4
	c9.9,8.8,15.1-0.1,15.1-0.1l11.7-35L169.7,232.9z"/>
<path class="st22" d="M135.3,324.1c0,0-0.5-2.8-2.7-3.1l-5.6-0.8l-0.5,1.4l2.4,0.8c0.2,0.1,0.3,0.3,0.2,0.5c0,0.1-0.1,0.1-0.1,0.2
	l-3,1.6l-2,9.6c-0.4,1.9,1.7,4.9,1.7,4.9s2.7,3.5,4.9,3.3l4-0.3c0.2-0.7,0-1.4-0.6-1.9c-1.6-1.6-4.8-4-4.3-7.3
	C130.9,326.3,135.3,324.1,135.3,324.1z"/>
<path class="st16" d="M138.2,328.6l-4.6,0.1c-1-0.1-1.9,0.3-2.6,1c-1.1,1.4-0.5,4.5-0.5,6.9c-4.2-4.5-0.6-9.6,1.6-11.3
	c1.1-0.8,2.5-1.2,3.9-1.1l3.6,0.2L138.2,328.6z"/>
<polygon class="st19" points="183.6,234.8 180,244.6 172.7,238.8 176.6,224.7 "/>
<path class="st16" d="M186.1,235.2c1,0.1,2,0,2.9-0.5c3.9-5,1.5-19,1.5-19l-5.2-3.9l-7.3,4l-1.4,7.8c-0.4,2.6,0.7,7,2.6,8.8l0,0
	C181.1,234.1,183.5,235,186.1,235.2z"/>
<path class="st5" d="M190.7,216.4c-3.5,3.2-8.1,5.1-12.8,5.4c-1.8,0.1-1.6-0.2-1.4,3.1c0,2.4-0.5,4.7-1.6,6.9l-4.3-0.9
	c0,0-6.6-18.8,4.7-22.5C187.5,204.3,190.7,216.4,190.7,216.4z"/>
<path class="st22" d="M195.3,332.9c0,0-2.5,1.3-2.2,3.4s0.9,5.6,0.9,5.6h1.5l0.1-2.5c0-0.2,0.2-0.4,0.4-0.4c0.1,0,0.2,0,0.2,0.1
	l2.9,2.2c0.6,0.5,1.4,0.7,2.2,0.8l11.7,0.2c0,0,0.1-3.7-6.8-4.9C202.3,336.7,198.5,335.2,195.3,332.9z"/>
<path class="st16" d="M198.8,328.8l1.4,4.4c0.3,0.9,0.9,1.7,1.7,2.2c1.4,0.9,2.8,1.5,4.4,2c-2.6,2.1-6.6-0.1-8.9-1.8
	c-1.1-0.8-1.9-2-2.2-3.3l-0.8-3.5L198.8,328.8z"/>
<rect x="204" y="241.7" transform="matrix(0.9928 -0.12 0.12 0.9928 -27.6863 27.0189)" class="st23" width="13" height="3.4"/>
<linearGradient id="SVGID_4_" gradientUnits="userSpaceOnUse" x1="213.8715" y1="338.8866" x2="215.5915" y2="338.8866" gradientTransform="matrix(0.9991 4.152684e-02 -4.152684e-02 0.9991 3.457 -103.2478)">
	<stop  offset="0" style="stop-color:#D6EDE5"/>
	<stop  offset="1" style="stop-color:#B1E1EA"/>
</linearGradient>
<polygon class="st24" points="204.3,242.5 204.7,245.9 203.5,246 203.1,242.6 "/>
<path class="st22" d="M203.4,242.6c-1,0.1-1.7,0.4-1.5,1.9c0.2,1.7,1,1.6,1.9,1.5L203.4,242.6z"/>
<linearGradient id="SVGID_5_" gradientUnits="userSpaceOnUse" x1="227.4515" y1="336.8228" x2="230.4833" y2="336.8228" gradientTransform="matrix(0.9991 4.152690e-02 -4.152690e-02 0.9991 3.4591 -103.2767)">
	<stop  offset="0" style="stop-color:#D6EDE5"/>
	<stop  offset="1" style="stop-color:#B1E1EA"/>
</linearGradient>
<polygon class="st25" points="216.8,241 219.6,241.8 219.7,243 217.2,244.4 "/>
<polygon class="st22" points="219.6,241.8 220.8,242.2 219.7,243 "/>
<rect x="204.4" y="242.3" transform="matrix(0.9928 -0.12 0.12 0.9928 -27.5994 27.0393)" class="st26" width="12.6" height="0.8"/>
<rect x="204.6" y="243.9" transform="matrix(0.9928 -0.12 0.12 0.9928 -27.7901 27.074)" class="st26" width="12.6" height="0.8"/>
<path class="st27" d="M169.6,291.2c0,0,17.7-15.8,28.3-11.5s1.2,49.9,1.2,49.9l-4.8-0.7c0,0-7.1-17.2-5.3-26.1
	c-3.4,10.5-13.2,20.9-13.2,20.9L169.6,291.2z"/>
<path class="st16" d="M213.8,241c-0.5-1.5-0.7-1.9-2.2-1.3c-1.4,0.5-2.5,1.5-3.2,2.9l-4,7.7h-0.1c0.9,1,1.8,2.1,2.5,3.2l0.6-0.6
	l4.3-2.9c1.5-1,3.5-2.4,3.7-4.2S214.3,242.4,213.8,241z"/>
<path class="st16" d="M175.4,221.6c0.9-0.6,2.1-0.3,2.8,0.6c0.8,0.7,0.9,1.8,0.2,2.6c0,0,0,0.1-0.1,0.1c-0.9,0.6-2.1,0.3-2.8-0.5
	C174.7,223.6,174.7,222.5,175.4,221.6C175.3,221.7,175.4,221.6,175.4,221.6z"/>
<linearGradient id="SVGID_6_" gradientUnits="userSpaceOnUse" x1="152.4" y1="221.376" x2="184.5057" y2="221.376" gradientTransform="matrix(1 0 0 -1 0 485.276)">
	<stop  offset="0" style="stop-color:#33CCFF"/>
	<stop  offset="1" style="stop-color:#4EDCCA"/>
</linearGradient>
<path class="st28" d="M173.4,236.6l6.8,7.5c0,0,3.3,6.5,4.3,17.3c0.3,3-1.1,5.2-2.8,7.8c-4.5,7.1-8.5,14.4-12.1,22l-17.2-6.1
	c0,0,7.6-35.3,12-41.9S173.4,236.6,173.4,236.6z"/>
<path class="st9" d="M152.4,285.1c0,0-3.5,5.8-4.8,17.6s17.6,27.8,17.6,27.8s-5.1-7.6-28.5-6.7c-1.2,1.7-2.2,3.6-3,5.5
	c42.8,24.4,58.2,20.6,60.1,8.9s-24.3-46.9-24.3-46.9L152.4,285.1z"/>
<path class="st16" d="M204.9,249.3l-20.4,14.9c0,0-3.9-10.1-7.2-16.9s-16-3.3-10.6,11c5.4,14.3,5.8,19.8,14.4,21.3
	s28.2-27.9,28.2-27.9L204.9,249.3z"/>
<path class="st29" d="M169.9,267c4.4-2.4,8.6-4.9,12.7-7.8c-1.4-3.5-3.4-8.3-5.2-12c-3.3-6.8-16-3.3-10.6,11
	C168,261.6,169,264.6,169.9,267z"/>
<rect x="263.6" y="107.6" class="st30" width="89.6" height="89.6"/>
<circle class="st31" cx="308.4" cy="134.2" r="18.5"/>
<path class="st31" d="M308.4,161.7c-20,0-36.6,15.5-38,35.5h76C345,177.2,328.4,161.7,308.4,161.7z"/>
<rect x="121.6" y="107.6" class="st1" width="130.4" height="24.8"/>
<rect x="121.6" y="139.9" class="st17" width="130.4" height="10.4"/>
<rect x="121.6" y="156.3" class="st32" width="130.4" height="5.2"/>
<rect x="121.6" y="183.8" class="st17" width="130.4" height="5.2"/>
<path class="st33" d="M247.3,302.6l4.2,11.2c0.4,1.6,0.4,3.4-1.2,4.4c-0.7,0.4-1.5,0.7-2.2,1c-0.8-0.2-5.6-15.3-5.6-15.3l0.1-0.1
	C243.7,302.4,245.7,301.9,247.3,302.6z"/>
<polygon class="st22" points="248.1,319.2 242.5,303.9 241.8,304.4 247.4,319.5 "/>
<polygon class="st6" points="249,307.1 249.4,308.1 247.4,308.4 247.1,307.5 "/>
<polygon class="st6" points="249.8,309.2 250.2,310.2 248.2,310.6 247.9,309.6 "/>
<path class="st16" d="M252,300l-4.7,2.6l0,0c-0.3,1.1,0.1,2.3,1,3l0.2,0.1l5.2-1.3L252,300z"/>
<path class="st32" d="M289.4,229.4c-3.2,4-5.3,8.7-5.9,13.8c-0.8,5.9,1.4,15.2,1.6,22.4c0.2,6.7-2.8,12-8.1,16L252,300l1.7,4.5
	c0,0,34.4-5.2,43.4-20.6s11.2-50.3,11.2-50.3L289.4,229.4z"/>
<path class="st16" d="M270.7,210.5l-12.9,28.9c0,0-5.3,0.6-7.6,2.7c-1.2,1.1-1.1,3.2-0.8,5c0.2,1,1.1,1.6,2.1,1.4
	c0.3-0.1,0.6-0.2,0.8-0.4c1.4-1.2,3.2-2.6,4.4-2.8c1.8-0.2,3.3-1.2,4.1-2.8l18.5-29.1L270.7,210.5z"/>
<path class="st16" d="M334.6,152.4l6.6-5.7l-5.1-28l-8-4.1c0.6-0.9,1.8-1.3,2.8-0.9c1.2,0.4,2.4,0.5,3.6,0.3c0,0,1.5-1.8-1.3-3.1
	c-1.6-1.1-2.6,0-7.2-0.2c0-0.7,6.1-2.4,6.1-2.4c1.9-0.6,6.7,3.1,6.7,3.1c0.3,0.4,0.5,1,0.6,1.5l0.8,5.2c0,0,10.3,28.2,10.3,31.2
	s-5.8,7.1-5.8,7.1L334.6,152.4z"/>
<path class="st32" d="M299,232.3c0,0-4,4.8-1.6,16c1.5,7.1,8.2,16.1,12.7,22.3c3.2,4.4,3.3,10,2.3,15.4c-3.7,20.5,2.2,45.5,2.2,45.5
	h4.8c0,0,7.2-36.7,9.3-62.4c1.2-14.1-1.7-28.1-8.2-40.6L299,232.3z"/>
<rect x="331.3" y="105.2" transform="matrix(0.1452 -0.9894 0.9894 0.1452 173.2776 426.2067)" class="st23" width="4" height="15.2"/>
<rect x="339" y="113.2" transform="matrix(0.1452 -0.9894 0.9894 0.1452 178.7292 434.7412)" class="st6" width="4" height="1.4"/>
<path class="st22" d="M341.1,116c1.1,0.2,2,0.1,2.3-1.7c0.3-2-0.6-2.1-1.7-2.3L341.1,116z"/>
<polygon class="st6" points="325.5,113.7 322.6,111.9 322.8,110.5 326.1,109.7 "/>
<polygon class="st34" points="322.6,111.9 321.3,111 322.8,110.5 "/>
<rect x="332.4" y="106.3" transform="matrix(0.1452 -0.9894 0.9894 0.1452 172.1089 426.4947)" class="st35" width="0.9" height="14.7"/>
<rect x="332.7" y="104.5" transform="matrix(0.1452 -0.9894 0.9894 0.1452 174.1639 425.2089)" class="st35" width="0.9" height="14.7"/>
<linearGradient id="SVGID_7_" gradientUnits="userSpaceOnUse" x1="269.92" y1="290.0142" x2="346.83" y2="290.0142" gradientTransform="matrix(1 0 0 -1 0 485.276)">
	<stop  offset="0" style="stop-color:#FF6666"/>
	<stop  offset="1" style="stop-color:#F9A4D8"/>
</linearGradient>
<path class="st36" d="M287.3,175.7c-8.5,6.3-17.3,36.4-17.3,36.4l7.5,4.2l11-16.8c0,0,1.2,19.4-1.7,34.3c1.3,5.6,7.7,5,17.9,3
	c6-1.1,11.8-3.3,17-6.4c0,0,0.4-26.9,1.8-41.2s-1.3-15.8,2.3-15.3c8-4.6,21.2-19.2,21.2-19.2l-12.2-2.4l-26.3,15.4
	C308.3,167.8,295.5,171.2,287.3,175.7z"/>
<path class="st9" d="M294.5,137.6c-15.4,0-8.9,29.6-8.9,29.6s2.7,19.2,8.9,26.9c5.3,6.7,15.8,4.7,20.7,1.5c2.4-1.6,5.1-2.6,8-3
	c4.2-0.5,9.2-2.4,9.2-9.9c0-7.1-8.5-12.6-14.1-16.6c-3.6-2.6-6.2-6.4-7.3-10.7C309.2,148.1,304.8,137.6,294.5,137.6z"/>
<path class="st33" d="M315.5,336.8h12c1.6,0.2,3.4,0.8,3.7,2.7c0.1,0.8,0.2,1.6,0.2,2.4c-0.4,0.7-16.3-0.1-16.3-0.1l-0.1-0.1
	C314,340.1,314.2,338.1,315.5,336.8z"/>
<polygon class="st34" points="331.3,341.8 315,341.8 315.1,342.6 331.3,342.6 "/>
<polygon class="st6" points="320.2,336.8 321.3,336.8 321,338.7 319.9,338.7 "/>
<polygon class="st6" points="322.5,336.8 323.6,336.8 323.3,338.7 322.2,338.7 "/>
<path class="st16" d="M314.7,331.5l0.8,5.3l0,0c1,0.7,2.2,0.7,3.2,0.1l0.2-0.1l0.6-5.3H314.7z"/>
<rect x="122.1" y="170.1" class="st32" width="130.4" height="5.2"/>
<polygon class="st19" points="419.7,273.1 420.7,267.9 422.3,273.1 "/>
<polyline class="st19" points="191.8,227.8 189.2,227.8 190.3,222.5 "/>
<polyline class="st19" points="62.6,272.3 60,272.3 61,267 "/>
</svg>
