<svg id="Layer_1" data-name="Layer 1" xmlns="http://www.w3.org/2000/svg" viewBox="0 0 1041.3 264.8"><defs><style>.cls-1{fill:#3cf;}.cls-2{fill:#919d9d;}</style></defs><title>CanYa_CanHire</title><path class="cls-1" d="M587.91,97.19q-7.21-9.43-19.73-14.75T536.1,77.12a69.6,69.6,0,0,0-30.2,7,52,52,0,0,0-12.45,8.32,56,56,0,0,0-12.3,16.4,128.76,128.76,0,0,1-46.61,50.68v74.07a25.69,25.69,0,0,0,25.69,25.69h23v-93q0-27.09,8.92-38.94T521,115.54q17.5,0,24.36,10.81t6.86,32.77v75.13a25.06,25.06,0,0,0,25.06,25.06h23.66V150.2a143.29,143.29,0,0,0-2.91-30A57.2,57.2,0,0,0,587.91,97.19Z"/><path class="cls-1" d="M434.54,81.92v60.79a128,128,0,0,0,35.17-60.79Z"/><path class="cls-1" d="M159.14,204.62l-.11.13c-.8.87-1.64,1.69-2.49,2.49-1.81,1.86-3.57,3.79-5.26,5.76q-2.82,3.81-5.89,7.4A128.29,128.29,0,0,1,84,260.06a133.86,133.86,0,0,0,35.61,4.73h.8c1.33,0,2.63,0,3.94-.08A118.65,118.65,0,0,0,162,257.93,96.14,96.14,0,0,0,194.88,238a99.42,99.42,0,0,0,22.65-31.56,121.82,121.82,0,0,0,10.09-36.53,127.53,127.53,0,0,0-56.53,24.38A130.2,130.2,0,0,0,159.14,204.62Z"/><path class="cls-1" d="M120.43,219.85q-18.2,0-30.88-7A59,59,0,0,1,69,194.12a81.16,81.16,0,0,1-11.49-26.25,124.79,124.79,0,0,1-3.6-30,134.25,134.25,0,0,1,3.6-31.23A88.1,88.1,0,0,1,62.84,90.8c.44-1,.89-1.91,1.36-2.85,0,0,0-.1.08-.16.44-.87.89-1.74,1.35-2.59l.45-.78c.37-.66.74-1.31,1.13-2,.57-.94,1.15-1.86,1.75-2.77A58.35,58.35,0,0,1,89.55,60.82q12.69-7,30.88-7,.84,0,1.68,0h0a56.17,56.17,0,0,1,33.66,12.32,54.33,54.33,0,0,1,12,13.55h0l.09.16a34.74,34.74,0,0,0,29.48,16.82h28.76Q223.7,75.4,214.44,58.93a95.44,95.44,0,0,0-10.63-15.27,88.94,88.94,0,0,0-12.87-12.35,103.84,103.84,0,0,0-32.25-17A123.44,123.44,0,0,0,120.43,8.5q-28.14,0-50.61,10A113.38,113.38,0,0,0,49.24,30.23h-.06l-1,.79L46.9,32c-.87.67-1.73,1.35-2.57,2l-1.2,1c-.86.72-1.7,1.46-2.54,2.21l-1.05.94c-1.15,1.07-2.29,2.15-3.4,3.26-.08.09-.17.16-.25.24-1.36,1.39-2.69,2.81-4,4.28-1.06,1.19-2.08,2.43-3.08,3.67-.35.43-.7.85-1,1.28h0a124.12,124.12,0,0,0-19.56,36,153.16,153.16,0,0,0-8.23,51,148,148,0,0,0,8.23,49.92,119.21,119.21,0,0,0,23.68,40.31A103.92,103.92,0,0,0,49.57,243.7a127.55,127.55,0,0,0,73-23.89C121.84,219.83,121.15,219.85,120.43,219.85Z"/><path class="cls-1" d="M245.83,190.09l0,0Z"/><path class="cls-1" d="M245,192.36a2.41,2.41,0,0,0,.08-.25A2.41,2.41,0,0,1,245,192.36Z"/><path class="cls-1" d="M243.79,196.92l.06-.27Z"/><path class="cls-1" d="M244.35,194.62l.09-.33Z"/><path class="cls-1" d="M244.44,194.29c.18-.66.38-1.3.58-1.93C244.82,193,244.62,193.63,244.44,194.29Z"/><path class="cls-1" d="M243.85,196.65c.15-.69.32-1.36.5-2C244.17,195.29,244,196,243.85,196.65Z"/><path class="cls-1" d="M243,201.62h0c.21-1.62.48-3.19.81-4.69C243.46,198.43,243.18,200,243,201.62Z"/><path class="cls-1" d="M245.1,192.11c.23-.69.48-1.36.73-2C245.58,190.75,245.33,191.42,245.1,192.11Z"/><path class="cls-1" d="M299.86,190.15a32.11,32.11,0,0,1,9.26-4.62,85.59,85.59,0,0,1,10.81-2.75c3.88-.69,7.78-1.25,11.67-1.71a212.58,212.58,0,0,0,22.82-4.92l.22-.06c14.69-4,33-10.66,44.18-20.87A25.38,25.38,0,0,0,409,134.92v-7.36a51,51,0,0,0-2.81-17.68,33.49,33.49,0,0,0-4.39-8.25,49.61,49.61,0,0,0-18.54-15.27,82.93,82.93,0,0,0-25-7.37q-6.87-.94-13.63-1.42c-1.13-.07-2.26-.15-3.39-.2q-5.07-.27-10.08-.27c-2.41,0-4.84.06-7.25.18a150.39,150.39,0,0,0-22,2.73,83.89,83.89,0,0,0-26.24,9.78A58.5,58.5,0,0,0,256.46,108q-7.56,11.33-8.58,28.48h0v0h30.64a24.57,24.57,0,0,0,21.68-13.4,20.88,20.88,0,0,1,6-7.19q7.21-5.4,19.14-6.07c1.1-.07,2.21-.1,3.37-.1,2.17,0,4.29.07,6.31.21s4.07.35,6,.64A27.33,27.33,0,0,1,351,114a18.83,18.83,0,0,1,6.86,7.21,16.43,16.43,0,0,1,1.12,2.51,30.21,30.21,0,0,1,1.45,10q.33,7.56-4.46,11.5c-3.2,2.63-7.56,4.64-13,6a130.84,130.84,0,0,1-18.87,3.09q-10.64,1-21.62,2.74a205.4,205.4,0,0,0-21.78,4.64,65,65,0,0,0-13.07,5,56.54,56.54,0,0,0-6.15,3.69A44.74,44.74,0,0,0,247.7,186a37.88,37.88,0,0,0-1.85,4l0,0c-.25.66-.5,1.33-.73,2a2.41,2.41,0,0,1-.08.25c-.2.63-.4,1.27-.58,1.93l-.09.33c-.18.67-.35,1.34-.5,2l-.06.27c-.33,1.5-.6,3.07-.81,4.69-.12.95-.23,1.92-.31,2.92q-.27,3.08-.27,6.39,0,13.74,4.62,23.69a44.92,44.92,0,0,0,12.88,16.47,54.22,54.22,0,0,0,19.21,9.6,85.74,85.74,0,0,0,21.11,3.05c.81,0,1.61,0,2.42,0,2.07,0,4.12-.06,6.16-.16l2.05-.14q3.19-.22,6.36-.65A110.21,110.21,0,0,0,335,259a63.38,63.38,0,0,0,27.34-16.7l.08-.07,0-.05a1.49,1.49,0,0,0,0,.21,25.62,25.62,0,0,0,23.91,17H409V172A127.43,127.43,0,0,0,370,189.47l-.74.49a25.67,25.67,0,0,0-10.74,17.58c.06-.5.13-1,.22-1.48a38.56,38.56,0,0,1-3.77,9.16,32,32,0,0,1-11.67,11.49,33.1,33.1,0,0,1-12.57,4.14c-1.49.22-3,.39-4.69.5s-3.37.17-5.17.17h-.11c-.83,0-1.66,0-2.49-.06-.54,0-1.06-.05-1.59-.09a.23.23,0,0,1-.14,0c-.38,0-.76,0-1.13-.08s-.72-.05-1.08-.1c-.63-.07-1.25-.16-1.88-.24-.46-.06-.92-.11-1.38-.2l-1.38-.24a27.52,27.52,0,0,1-9.61-3.6,18.33,18.33,0,0,1-6.52-7,22.76,22.76,0,0,1-2.4-11,23.69,23.69,0,0,1,2.4-11.33v0A22.4,22.4,0,0,1,299.86,190.15Z"/><path class="cls-2" d="M758.51,11.92V158.34H737.59V93.08H653.51v65.26H632.59V11.92h20.92v63h84.08v-63Z"/><path class="cls-2" d="M799.82,22.38a12.33,12.33,0,0,1-3.87-9.2,12.69,12.69,0,0,1,3.87-9.31A13.19,13.19,0,0,1,809.55,0a13.59,13.59,0,0,1,9.72,3.66,12,12,0,0,1,3.87,9.1,13,13,0,0,1-3.87,9.52,13.18,13.18,0,0,1-9.72,3.87A13.39,13.39,0,0,1,799.82,22.38Zm-.31,25.1h20.08V158.34H799.51Z"/><path class="cls-2" d="M892.59,51.46q10.24-5,24.89-5V65.89a39.09,39.09,0,0,0-4.6-.21q-16.32,0-25.63,9.73t-9.31,27.71v55.22H857.86V47.48h19.25V66.1A34.18,34.18,0,0,1,892.59,51.46Z"/><path class="cls-2" d="M1040.89,109.6h-90a34.85,34.85,0,0,0,12.87,23.54q11,8.88,27.29,8.89,19.88,0,32-13.39l11.08,13A48.53,48.53,0,0,1,1015.47,155a65.1,65.1,0,0,1-25,4.61q-17.58,0-31.17-7.22a51.4,51.4,0,0,1-21-20.19,57.84,57.84,0,0,1-7.43-29.28,58.74,58.74,0,0,1,7.22-29.07A51.64,51.64,0,0,1,958,53.65a56.61,56.61,0,0,1,28.55-7.21,55.43,55.43,0,0,1,28.34,7.21,50.71,50.71,0,0,1,19.46,20.19q7,13,7,29.7A59.63,59.63,0,0,1,1040.89,109.6ZM962.34,72.16q-9.72,8.79-11.4,23h71.12q-1.68-14-11.4-22.9T986.5,63.38Q972.07,63.38,962.34,72.16Z"/></svg>