<?xml version="1.0" encoding="UTF-8" standalone="no"?>
<svg width="40px" height="58px" viewBox="0 0 40 58" version="1.1" xmlns="http://www.w3.org/2000/svg" xmlns:xlink="http://www.w3.org/1999/xlink">
    <!-- Generator: Sketch 50 (54983) - http://www.bohemiancoding.com/sketch -->
    <title>C</title>
    <desc>Created with Sketch.</desc>
    <defs>
        <circle id="path-1" cx="16.5" cy="16.5" r="16.5"></circle>
        <filter x="-13.6%" y="-13.6%" width="127.3%" height="127.3%" filterUnits="objectBoundingBox" id="filter-2">
            <feOffset dx="0" dy="0" in="SourceAlpha" result="shadowOffsetOuter1"></feOffset>
            <feGaussianBlur stdDeviation="1.5" in="shadowOffsetOuter1" result="shadowBlurOuter1"></feGaussianBlur>
            <feColorMatrix values="0 0 0 0 0   0 0 0 0 0   0 0 0 0 0  0 0 0 0.15 0" type="matrix" in="shadowBlurOuter1"></feColorMatrix>
        </filter>
    </defs>
    <g id="Symbols" stroke="none" stroke-width="1" fill="none" fill-rule="evenodd">
        <g id="Card" transform="translate(-20.000000, -319.000000)">
            <g id="C" transform="translate(24.000000, 341.000000)">
                <g id="Group">
                    <g id="Oval">
                        <use fill="black" fill-opacity="1" filter="url(#filter-2)" xlink:href="#path-1"></use>
                        <use fill="#FFFFFF" fill-rule="evenodd" xlink:href="#path-1"></use>
                    </g>
                    <g id="Icon/CAN" transform="translate(4.000000, 4.000000)">
                        <g id="CanYa_Circle_Icon_CIrcle-Icon" transform="translate(-7.812500, -25.937500)">
                            <circle id="Oval" fill="#FFFFFF" fill-rule="nonzero" cx="20.2804833" cy="38.4054833" r="11.1550787"></circle>
                            <path d="M0.2625,0.0625 L0.0625,0.1625 C0.2125,0.3125 0.4125,0.4125 0.5625,0.5625 L0.2625,0.0625 Z" id="Shape" fill="#FFFFFF" fill-rule="nonzero"></path>
                            <path d="M2.18125,8.65625 L2.03125,8.75625 C2.18125,8.85625 2.33125,8.95625 2.48125,9.10625 L2.18125,8.65625 Z" id="Shape" fill="#FFFFFF" fill-rule="nonzero"></path>
                            <path d="M20.3071624,25.9375 C13.4083064,25.9375 7.8125,31.5333064 7.8125,38.4321624 C7.8125,45.3310183 13.4083064,50.9268247 20.3071624,50.9268247 C27.2060183,50.9268247 32.8018247,45.3310183 32.8018247,38.4321624 C32.8018247,31.5333064 27.2060183,25.9375 20.3071624,25.9375 Z M14.4069051,45.0204785 C13.6640451,44.1984612 13.0977665,43.2303076 12.7019804,42.1160175 C12.3061944,41.0017274 12.1113458,39.8021911 12.1113458,38.5174086 C12.1113458,37.196092 12.3061944,35.9721996 12.7019804,34.8457315 C13.0429654,33.8714888 13.5118197,33.0068484 14.1085433,32.2457213 C14.1085433,32.2457213 14.1085433,32.2457213 14.1085433,32.2457213 C14.1328994,32.2152763 14.1572554,32.1848312 14.1816115,32.1543861 C14.2546797,32.0630508 14.3277479,31.9778046 14.4008161,31.8925584 C14.4921514,31.7890451 14.5895756,31.6855318 14.6869999,31.5820185 C14.6930889,31.5759295 14.6991779,31.5698405 14.705267,31.5637515 C14.7844242,31.4845943 14.8696704,31.405437 14.9488276,31.3262798 C14.9731837,31.3019238 14.9975398,31.2836567 15.0218958,31.2593006 C15.082786,31.2044995 15.1436762,31.1496983 15.2045663,31.1009862 C15.2350114,31.0766301 15.2593675,31.0522741 15.2898126,31.027918 C15.3507027,30.9792059 15.4115929,30.9304937 15.4724831,30.8817816 C15.5029281,30.8574255 15.5333732,30.8391585 15.5638183,30.8148024 C15.5881744,30.7965354 15.6125305,30.7782683 15.6368865,30.7600013 C15.6368865,30.7600013 15.6368865,30.7600013 15.6429755,30.7600013 C16.0935628,30.4311944 16.5867731,30.1510996 17.1286956,29.9136279 C18.2064516,29.4386846 19.4242549,29.195124 20.7760167,29.195124 C21.7502593,29.195124 22.6697009,29.3351713 23.5343412,29.6152661 C24.3989816,29.8953609 25.1722867,30.303325 25.8603456,30.8391585 C26.2013306,31.1070752 26.5057814,31.399348 26.7858762,31.7281549 C27.07206,32.0630508 27.3277987,32.4283919 27.5530923,32.830267 C27.9975905,33.6218391 28.2776853,34.5291026 28.3933766,35.5520574 L26.3231109,35.5520574 C25.4523815,35.5520574 24.6547203,35.0832032 24.1980441,34.3403431 C24.1980441,34.3342541 24.191955,34.3342541 24.191955,34.3281651 C23.9605724,33.9567351 23.6743886,33.6340172 23.3273147,33.3539224 C22.9802407,33.0738276 22.5905436,32.854623 22.1521344,32.6963086 C21.7502593,32.5501722 21.3362062,32.477104 20.903886,32.464926 C20.8612629,32.464926 20.8247288,32.464926 20.7821057,32.464926 C19.9052873,32.464926 19.1685162,32.6354184 18.5596146,32.9703143 C17.9507129,33.3052103 17.4575025,33.7618865 17.0738945,34.3281651 C17.0312714,34.3951443 16.9886482,34.4621234 16.9460251,34.5291026 C16.91558,34.5778148 16.891224,34.6204379 16.8668679,34.66915 C16.8546899,34.6874171 16.8425118,34.7056841 16.8364228,34.7239512 C16.7998887,34.7848413 16.7694436,34.8457315 16.7389985,34.9127107 C16.7389985,34.9187997 16.7329095,34.9187997 16.7329095,34.9248887 C16.6963754,34.9918679 16.6659303,35.0588471 16.6354853,35.1319153 C16.4771708,35.4850783 16.3432125,35.8686863 16.2457882,36.2705614 C16.0752957,36.9951544 15.9839605,37.7441035 15.9839605,38.5174086 C15.9839605,39.2602686 16.0692067,39.9787726 16.2457882,40.6790095 C16.4162807,41.3792465 16.6963754,42.0125042 17.0738945,42.5726937 C17.4514135,43.1328833 17.9446239,43.5834705 18.5596146,43.9183664 C19.1685162,44.2593514 19.9113763,44.4237548 20.7821057,44.4237548 C20.8308178,44.4237548 20.885619,44.4237548 20.9343311,44.4237548 C19.448611,45.4893328 17.634084,46.1225905 15.6734206,46.1469466 C15.2106553,45.8181397 14.7844242,45.4406206 14.4069051,45.0204785 Z M27.7783859,43.4616902 C27.3643328,44.3506866 26.8224103,45.1118137 26.1465294,45.7389825 C25.4706486,46.3661512 24.6790764,46.8410945 23.7718129,47.1699014 C22.9437066,47.4682632 22.0425321,47.6326667 21.0622004,47.6570227 C20.9708652,47.6570227 20.8734409,47.6631117 20.7760167,47.6631117 C20.7577496,47.6631117 20.7394826,47.6631117 20.7212155,47.6631117 C19.801774,47.6570227 18.9493116,47.5474204 18.1577395,47.3221268 C19.8991982,46.8106494 21.4275414,45.8059616 22.5783656,44.466378 C22.724502,44.2958855 22.8706384,44.113215 23.0045968,43.9305445 C23.1263771,43.7904971 23.2542465,43.6504497 23.3821158,43.5164913 C23.443006,43.4616902 23.5038962,43.4008 23.5586973,43.3399099 C23.5586973,43.3338208 23.5647863,43.3338208 23.5647863,43.3277318 C23.8387921,43.0659041 24.1249759,42.8162544 24.4233377,42.5848718 C25.5924289,41.6958753 26.9807247,41.0747956 28.4968899,40.8251459 C28.3872876,41.7932996 28.1498159,42.670118 27.7783859,43.4616902 Z" id="Shape" fill="#33CCFF" fill-rule="nonzero"></path>
                        </g>
                    </g>
                </g>
            </g>
        </g>
    </g>
</svg>